<svg viewBox="0 0 222.078 35.28" xmlns="http://www.w3.org/2000/svg" xmlns:xlink="http://www.w3.org/1999/xlink" width="222.077759" height="35.280029" fill="none" customFrame="#000000">
	<defs>
		<filter id="pixso_custom_mask_type_alpha">
			<feColorMatrix type="matrix" values="0 0 0 0 1 0 0 0 0 1 0 0 0 0 1 0 0 0 1 0 " />
		</filter>
		<g id="pixso_custom_effect_0">
			<effect visibility="visible" effectType="gaussianBlur" stdDeviation="1.46124172" />
		</g>
		<filter id="filter_0" width="20.982529" height="22.921631" x="-1.460754" y="7.539917" filterUnits="userSpaceOnUse" customEffect="url(#pixso_custom_effect_0)" color-interpolation-filters="sRGB">
			<feFlood flood-opacity="0" result="BackgroundImageFix" />
			<feBlend result="shape" in="SourceGraphic" in2="BackgroundImageFix" mode="normal" />
			<feGaussianBlur stdDeviation="0.487080574" result="effect_layerBlur_1" />
		</filter>
	</defs>
	<mask id="mask_0" width="17.864677" height="19.999199" x="11.038025" y="9.000000" maskUnits="userSpaceOnUse">
		<g filter="url(#pixso_custom_mask_type_alpha)">
			<path id="Mask" d="M14.7265 28.4574C12.58 29.6972 11.038 28.664 11.038 26.8262C11.038 24.8698 11.038 18.9996 11.038 18.9996C11.038 18.9996 11.038 13.1294 11.038 11.173C11.038 9.33518 12.579 8.30196 14.7265 9.54182C17.9959 11.4303 27.8043 17.0968 27.8043 17.0968C29.2688 17.9425 29.2688 20.0567 27.8043 20.9024C27.8034 20.9024 17.9959 26.5689 14.7265 28.4574Z" fill="rgb(111,228,255)" fill-rule="nonzero" />
		</g>
	</mask>
	<rect id="logo" width="220.000000" height="35.000000" x="0.000000" y="0.000000" fill="rgb(255,255,255)" fill-opacity="0" />
	<path id="SkyFitnessPro" d="M42.6761 17.752C40.8281 16.436 39.4001 14.784 39.4001 12.012C39.4001 8.23197 41.8361 6.71997 44.8321 6.71997C47.8841 6.71997 50.3201 8.53997 50.3201 12.32L50.3201 13.72L46.9601 13.72L46.9601 12.404C46.9601 10.612 46.1481 9.79997 44.8321 9.79997C43.6001 9.79997 42.7601 10.584 42.7601 12.012C42.7601 13.412 43.6561 14.28 44.8321 15.12L47.2961 16.884C49.1161 18.2 50.6001 19.852 50.6001 22.54C50.6001 26.376 48.0241 28.28 44.8601 28.28C41.6961 28.28 39.1201 26.292 39.1201 22.68L39.1201 21L42.4801 21L42.4801 22.484C42.4801 24.164 43.4321 25.2 44.8601 25.2C46.3161 25.2 47.2401 24.36 47.2401 22.96C47.2401 21.392 46.3161 20.356 45.0561 19.46L42.6761 17.752ZM54.11 6.99997L57.47 6.99997L57.47 20.104L62.902 14L67.326 14L61.166 20.356L67.69 28L63.49 28L57.47 20.636L57.47 28L54.11 28L54.11 6.99997ZM89.4493 19.32L89.4493 28L86.0893 28L86.0893 6.99997L95.7213 6.99997L95.7213 10.08L89.4493 10.08L89.4493 16.24L94.8813 16.24L94.8813 19.32L89.4493 19.32ZM102.57 9.09997C102.57 10.276 101.702 11.2 100.47 11.2C99.266 11.2 98.37 10.276 98.37 9.09997C98.37 7.89597 99.266 6.99997 100.47 6.99997C101.702 6.99997 102.57 7.89597 102.57 9.09997ZM185.151 20.16L185.151 28L181.791 28L181.791 6.99997L187.923 6.99997C191.367 6.99997 193.831 8.98797 193.831 12.74L193.831 14.14C193.831 18.032 191.367 20.16 187.923 20.16L185.151 20.16ZM110.823 16.94L110.823 23.212C110.823 24.584 111.467 25.2 112.923 25.2C113.399 25.2 113.987 25.116 114.463 24.948L114.463 27.944C113.959 28.112 113.063 28.28 112.251 28.28C109.479 28.28 107.463 27.188 107.463 23.436L107.463 16.94L105.223 16.94L105.223 14L107.463 14L107.463 9.79997L110.823 9.79997L110.823 14L114.463 14L114.463 16.94L110.823 16.94ZM190.471 13.02C190.471 10.892 189.379 10.08 187.643 10.08L185.151 10.08L185.151 17.08L187.643 17.08C189.379 17.08 190.471 16.156 190.471 13.86L190.471 13.02ZM127.334 28L127.334 20.3C127.334 17.948 126.214 16.66 124.394 16.66C122.574 16.66 121.454 17.948 121.454 20.3L121.454 28L118.094 28L118.094 14L121.454 14L121.454 16.016C122.322 14.532 123.75 13.72 125.486 13.72C128.454 13.72 130.694 15.68 130.694 19.628L130.694 28L127.334 28ZM147.94 21C147.94 21.392 147.912 21.756 147.884 22.12L137.356 22.12C137.72 24.164 139.064 25.34 141.136 25.34C142.62 25.34 143.488 24.78 143.936 23.8L147.576 23.8C146.736 26.712 144.3 28.28 140.996 28.28C136.992 28.28 134.052 25.284 134.052 21C134.052 16.716 136.992 13.72 140.996 13.72C145 13.72 147.94 16.716 147.94 21ZM154.252 17.808C154.252 20.496 162.484 18.2 162.484 23.968C162.484 26.628 160.048 28.28 156.772 28.28C153.272 28.28 150.612 26.488 150.612 23.38L154.112 23.38C154.112 24.892 155.26 25.648 156.772 25.648C158.172 25.648 159.012 25.144 159.012 24.108C159.012 21.14 150.864 23.66 150.864 17.948C150.864 15.344 153.244 13.72 156.352 13.72C159.712 13.72 162.232 15.792 162.232 18.452L158.732 18.452C158.732 17.276 157.724 16.38 156.352 16.38C155.092 16.38 154.252 16.912 154.252 17.808ZM168.921 17.808C168.921 20.496 177.153 18.2 177.153 23.968C177.153 26.628 174.717 28.28 171.441 28.28C167.941 28.28 165.281 26.488 165.281 23.38L168.781 23.38C168.781 24.892 169.929 25.648 171.441 25.648C172.841 25.648 173.681 25.144 173.681 24.108C173.681 21.14 165.533 23.66 165.533 17.948C165.533 15.344 167.913 13.72 171.021 13.72C174.381 13.72 176.901 15.792 176.901 18.452L173.401 18.452C173.401 17.276 172.393 16.38 171.021 16.38C169.761 16.38 168.921 16.912 168.921 17.808ZM197.198 14L200.558 14L200.558 16.268C201.566 14.616 203.218 13.72 205.262 13.72C205.514 13.72 205.794 13.72 205.962 13.776L205.962 17.444C205.57 17.304 205.066 17.22 204.506 17.22C202.014 17.22 200.558 18.508 200.558 20.86L200.558 28L197.198 28L197.198 14ZM222.078 21C222.078 25.284 219.026 28.28 214.938 28.28C210.85 28.28 207.798 25.284 207.798 21C207.798 16.716 210.85 13.72 214.938 13.72C219.026 13.72 222.078 16.716 222.078 21ZM82.43 14L77.138 29.456C75.962 32.9 74.45 35.28 70.894 35.28C70.082 35.28 69.27 35.14 68.738 34.972L68.738 32.004C69.27 32.172 69.914 32.312 70.586 32.312C72.154 32.312 73.134 31.388 73.946 29.428L68.682 14L72.042 14L75.542 24.78L79.07 14L82.43 14ZM102.15 14L102.15 28L98.79 28L98.79 14L102.15 14ZM144.608 19.74C144.244 17.78 142.956 16.66 140.996 16.66C139.036 16.66 137.748 17.78 137.384 19.74L144.608 19.74ZM211.158 21C211.158 23.52 212.782 25.2 214.938 25.2C217.094 25.2 218.718 23.52 218.718 21C218.718 18.48 217.094 16.8 214.938 16.8C212.782 16.8 211.158 18.48 211.158 21Z" fill="rgb(0,0,0)" fill-rule="evenodd" />
	<g id="Logo">
		<g id="Logo">
			<g id="Triangles">
				<path id="Left Triangle" d="M3.68844 28.4581C1.54195 29.698 0 28.6648 0 26.827C0 24.8705 0 19.0003 0 19.0003C0 19.0003 0 13.1301 0 11.1737C0 9.33591 1.54099 8.30269 3.68844 9.54255C7.03156 11.4731 17.06 17.2668 17.06 17.2668C18.3934 18.037 18.3934 19.9628 17.06 20.7329C17.06 20.7338 7.03156 26.5275 3.68844 28.4581Z" fill="rgb(0,193,255)" fill-rule="nonzero" />
				<path id="Right Triangle" d="M14.7265 28.4574C12.58 29.6972 11.038 28.664 11.038 26.8262C11.038 24.8698 11.038 18.9996 11.038 18.9996C11.038 18.9996 11.038 13.1294 11.038 11.173C11.038 9.33518 12.579 8.30196 14.7265 9.54182C17.9959 11.4303 27.8043 17.0968 27.8043 17.0968C29.2688 17.9425 29.2688 20.0567 27.8043 20.9024C27.8034 20.9024 17.9959 26.5689 14.7265 28.4574Z" fill="rgb(188,236,48)" fill-rule="nonzero" />
			</g>
			<g mask="url(#mask_0)">
				<g filter="url(#filter_0)">
					<path id="Blur" d="M3.68893 28.4585C1.54244 29.6983 0.000488281 28.6651 0.000488281 26.8273C0.000488281 24.8709 0.000488281 19.0007 0.000488281 19.0007C0.000488281 19.0007 0.000488281 13.1305 0.000488281 11.1741C0.000488281 9.33628 1.54148 8.30306 3.68893 9.54292C7.03205 11.4735 17.0605 17.2672 17.0605 17.2672C18.3939 18.0373 18.3939 19.9631 17.0605 20.7333C17.0605 20.7342 7.03205 26.5279 3.68893 28.4585Z" fill="rgb(153,209,0)" fill-rule="nonzero" />
				</g>
			</g>
		</g>
	</g>
</svg>
