<svg viewBox="0 0 197 197" xmlns="http://www.w3.org/2000/svg" xmlns:xlink="http://www.w3.org/1999/xlink" width="197.000000" height="197.000000" fill="none" customFrame="#000000">
	<defs>
		<filter id="pixso_custom_mask_type_alpha">
			<feColorMatrix type="matrix" values="0 0 0 0 1 0 0 0 0 1 0 0 0 0 1 0 0 0 1 0 " />
		</filter>
	</defs>
	<mask id="mask_0" width="197.000000" height="197.000000" x="0.000000" y="0.000000" maskUnits="userSpaceOnUse">
		<g filter="url(#pixso_custom_mask_type_alpha)">
			<path id="Rectangle 111003296" d="M20 0L177 0C188.046 0 197 8.95431 197 20L197 177C197 188.046 188.046 197 177 197L20 197C8.95431 197 0 188.046 0 177L0 20C0 8.95431 8.95431 0 20 0Z" fill="rgb(217,217,217)" fill-rule="nonzero" />
		</g>
	</mask>
	<g id="Mask group" mask="url(#mask_0)">
		<path id="Rectangle 2509" d="M20 0L177 0C188.046 0 197 8.95431 197 20L197 177C197 188.046 188.046 197 177 197L20 197C8.95431 197 0 188.046 0 177L0 20C0 8.95431 8.95431 0 20 0Z" fill="rgb(217,217,217)" fill-rule="nonzero" />
		<path id="Ellipse 3844" d="M98.5 125.095C50.3529 125.095 9.22177 155.134 -7.1748 197.492L204.175 197.492C187.778 155.134 146.647 125.095 98.5 125.095Z" fill="rgb(255,255,255)" fill-rule="evenodd" />
		<path id="Icon" d="M98.0073 100.751C117.999 100.751 134.206 84.5919 134.206 64.6582C134.206 44.7244 117.999 28.5649 98.0073 28.5649C78.0153 28.5649 61.8086 44.7244 61.8086 64.6582C61.8086 84.5919 78.0153 100.751 98.0073 100.751Z" fill="rgb(255,255,255)" fill-rule="evenodd" />
	</g>
</svg>
