<svg viewBox="0 0 18 18" xmlns="http://www.w3.org/2000/svg" xmlns:xlink="http://www.w3.org/1999/xlink" width="18.000000" height="18.000000" fill="none" customFrame="#000000">
	<rect id="Calendar" width="18.000000" height="18.000000" x="0.000000" y="0.000000" />
	<path id="Icon" d="M7.5 2.625C7.5 1.79657 6.82843 1.125 6 1.125C5.17157 1.125 4.5 1.79657 4.5 2.625C2.84315 2.625 1.5 3.96815 1.5 5.625L16.5 5.625C16.5 3.96815 15.1569 2.625 13.5 2.625C13.5 1.79657 12.8284 1.125 12 1.125C11.1716 1.125 10.5 1.79657 10.5 2.625L7.5 2.625ZM16.5 7.125L1.5 7.125L1.5 11.325C1.5 13.0052 1.5 13.8452 1.82698 14.487C2.1146 15.0515 2.57354 15.5104 3.13803 15.798C3.77976 16.125 4.61984 16.125 6.3 16.125L11.7 16.125C13.3802 16.125 14.2202 16.125 14.862 15.798C15.4265 15.5104 15.8854 15.0515 16.173 14.487C16.5 13.8452 16.5 13.0052 16.5 11.325L16.5 7.125ZM10.5817 10.5345C10.5 10.6949 10.5 10.905 10.5 11.325L10.5 11.925C10.5 12.345 10.5 12.5551 10.5817 12.7155C10.6537 12.8566 10.7684 12.9713 10.9095 13.0433C11.0699 13.125 11.28 13.125 11.7 13.125L12.3 13.125C12.72 13.125 12.9301 13.125 13.0905 13.0433C13.2316 12.9713 13.3463 12.8566 13.4183 12.7155C13.5 12.5551 13.5 12.345 13.5 11.925L13.5 11.325C13.5 10.905 13.5 10.6949 13.4183 10.5345C13.3463 10.3934 13.2316 10.2787 13.0905 10.2067C12.9301 10.125 12.72 10.125 12.3 10.125L11.7 10.125C11.28 10.125 11.0699 10.125 10.9095 10.2067C10.7684 10.2787 10.6537 10.3934 10.5817 10.5345Z" fill="rgb(31.875,31.875,31.875)" fill-rule="evenodd" />
</svg>
