<svg viewBox="0 0 18 18" xmlns="http://www.w3.org/2000/svg" xmlns:xlink="http://www.w3.org/1999/xlink" width="18.000000" height="18.000000" fill="none">
	<rect id="mingcute:signal-fill" width="18.000000" height="18.000000" x="0.000000" y="0.000000" fill="rgb(255,255,255)" fill-opacity="0" />
	<g id="Group">
		<path id="Vector" d="M18 0L18 18L0 18L0 0L18 0ZM9.4455 17.4435L9.4365 17.445L9.38325 17.4713L9.36825 17.4743L9.35775 17.4713L9.3045 17.4443C9.297 17.442 9.29025 17.4443 9.2865 17.4487L9.2835 17.4562L9.27075 17.7772L9.2745 17.7922L9.282 17.802L9.36 17.8575L9.37125 17.8605L9.38025 17.8575L9.45825 17.802L9.46725 17.79L9.47025 17.7772L9.4575 17.457C9.456 17.4495 9.45075 17.4443 9.4455 17.4435ZM9.6435 17.3587L9.633 17.3602L9.495 17.43L9.4875 17.4375L9.48525 17.4457L9.49875 17.7682L9.5025 17.7772L9.5085 17.7833L9.65925 17.8522C9.66825 17.8552 9.6765 17.8523 9.681 17.8463L9.684 17.8358L9.6585 17.3752C9.65625 17.3662 9.651 17.3602 9.6435 17.3587ZM9.10725 17.3602C9.10384 17.3587 9.10003 17.3583 9.09637 17.3591C9.09272 17.3599 9.08943 17.3619 9.087 17.3647L9.0825 17.3752L9.057 17.8358C9.057 17.8448 9.06225 17.8507 9.06975 17.8538L9.081 17.8522L9.23175 17.7825L9.23925 17.7765L9.2415 17.7682L9.255 17.4457L9.25275 17.4368L9.24525 17.4293L9.10725 17.3602Z" fill-rule="evenodd" />
		<path id="Vector" d="M15 2.625C15.2984 2.625 15.5845 2.74353 15.7955 2.9545C16.0065 3.16548 16.125 3.45163 16.125 3.75L16.125 14.25C16.125 14.5484 16.0065 14.8345 15.7955 15.0455C15.5845 15.2565 15.2984 15.375 15 15.375C14.7016 15.375 14.4155 15.2565 14.2045 15.0455C13.9935 14.8345 13.875 14.5484 13.875 14.25L13.875 3.75C13.875 3.45163 13.9935 3.16548 14.2045 2.9545C14.4155 2.74353 14.7016 2.625 15 2.625Z" fill="rgb(217,217,217)" fill-rule="evenodd" />
		<path id="Vector" d="M12 4.875C12.2984 4.875 12.5845 4.99353 12.7955 5.2045C13.0065 5.41548 13.125 5.70163 13.125 6L13.125 14.25C13.125 14.5484 13.0065 14.8345 12.7955 15.0455C12.5845 15.2565 12.2984 15.375 12 15.375C11.7016 15.375 11.4155 15.2565 11.2045 15.0455C10.9935 14.8345 10.875 14.5484 10.875 14.25L10.875 6C10.875 5.70163 10.9935 5.41548 11.2045 5.2045C11.4155 4.99353 11.7016 4.875 12 4.875Z" fill="rgb(217,217,217)" fill-rule="evenodd" />
		<path id="Vector" d="M9 7.125C9.29837 7.125 9.58452 7.24353 9.7955 7.4545C10.0065 7.66548 10.125 7.95163 10.125 8.25L10.125 14.25C10.125 14.5484 10.0065 14.8345 9.7955 15.0455C9.58452 15.2565 9.29837 15.375 9 15.375C8.70163 15.375 8.41548 15.2565 8.2045 15.0455C7.99353 14.8345 7.875 14.5484 7.875 14.25L7.875 8.25C7.875 7.95163 7.99353 7.66548 8.2045 7.4545C8.41548 7.24353 8.70163 7.125 9 7.125Z" fill="rgb(0,193,255)" fill-rule="evenodd" />
		<path id="Vector" d="M6 9.375C6.29837 9.375 6.58452 9.49353 6.7955 9.7045C7.00647 9.91548 7.125 10.2016 7.125 10.5L7.125 14.25C7.125 14.5484 7.00647 14.8345 6.7955 15.0455C6.58452 15.2565 6.29837 15.375 6 15.375C5.70163 15.375 5.41548 15.2565 5.2045 15.0455C4.99353 14.8345 4.875 14.5484 4.875 14.25L4.875 10.5C4.875 10.2016 4.99353 9.91548 5.2045 9.7045C5.41548 9.49353 5.70163 9.375 6 9.375Z" fill="rgb(0,193,255)" fill-rule="evenodd" />
		<path id="Vector" d="M3 11.625C3.29837 11.625 3.58452 11.7435 3.7955 11.9545C4.00647 12.1655 4.125 12.4516 4.125 12.75L4.125 14.25C4.125 14.5484 4.00647 14.8345 3.7955 15.0455C3.58452 15.2565 3.29837 15.375 3 15.375C2.70163 15.375 2.41548 15.2565 2.2045 15.0455C1.99353 14.8345 1.875 14.5484 1.875 14.25L1.875 12.75C1.875 12.4516 1.99353 12.1655 2.2045 11.9545C2.41548 11.7435 2.70163 11.625 3 11.625Z" fill="rgb(0,193,255)" fill-rule="evenodd" />
	</g>
</svg>
